<svg width="16" height="16" viewBox="0 0 16 16" fill="none" xmlns="http://www.w3.org/2000/svg">
<path fill-rule="evenodd" clip-rule="evenodd" d="M15.4378 15.141C14.7119 15.8635 13.539 15.8783 12.7958 15.1706L12.702 15.0793L0.899426 3.29492C0.178434 2.5305 0.163619 1.34195 0.867327 0.562729C1.58832 -0.174566 2.76857 -0.189362 3.50685 0.530673C3.51426 0.535605 3.5192 0.540537 3.5266 0.547934L8.13157 5.14925L12.3217 0.962201C13.0748 0.244632 14.2625 0.252029 15.0082 0.979462C15.1415 1.11262 15.2551 1.26304 15.3415 1.43072C15.7687 2.17294 15.6452 3.10504 15.0403 3.71165L10.8674 7.87651L15.4057 12.4112C16.1711 13.1337 16.2008 14.3396 15.4748 15.1015C15.4692 15.1099 15.462 15.1168 15.4545 15.1238C15.4489 15.1291 15.4431 15.1346 15.4378 15.141ZM0.593537 12.7393L2.28244 11.0527C3.0454 10.34 4.24047 10.3844 4.95406 11.1439C5.66517 11.9083 5.6232 13.1018 4.86023 13.812L3.17874 15.4912C2.43552 16.1866 1.27502 16.1669 0.554031 15.4468L0.499709 15.4074C-0.20153 14.6405 -0.159554 13.4544 0.593537 12.7393Z" fill="#ADA785"/>
</svg>
