<svg width="46" height="54" viewBox="0 0 46 54" fill="none" xmlns="http://www.w3.org/2000/svg">
<path fill-rule="evenodd" clip-rule="evenodd" d="M23.027 4.33325H22.9809C17.3135 4.33325 12.6978 8.85058 12.6707 14.4239V18.0053H33.3263V14.4693C33.3263 8.87992 28.7052 4.33325 23.027 4.33325ZM37.392 14.4693V18.7279C42.192 20.3839 45.6667 24.8346 45.6667 30.1173V41.5546C45.6667 48.2346 40.143 53.6666 33.3536 53.6666H33.275H24.179C23.057 53.6666 22.1463 52.7706 22.1463 51.6666C22.1463 50.5626 23.057 49.6666 24.179 49.6666H33.275C37.823 49.6666 41.5199 46.0293 41.5199 41.5546C41.5199 41.4571 41.5453 41.3688 41.5708 41.2804C41.5816 41.2432 41.5923 41.2059 41.6012 41.1679V30.1173C41.6012 25.6426 37.9016 22.0053 33.3536 22.0053H12.6465C8.09853 22.0053 4.3989 25.6426 4.3989 30.1173V41.1679C4.40756 41.2088 4.41871 41.2489 4.42988 41.289C4.45365 41.3745 4.4775 41.4602 4.4775 41.5546C4.4775 46.0293 8.17713 49.6666 12.7251 49.6666C13.8472 49.6666 14.7579 50.5626 14.7579 51.6666C14.7579 52.7706 13.8472 53.6666 12.7251 53.6666C12.7156 53.6666 12.7068 53.6653 12.698 53.6639C12.6892 53.6626 12.6804 53.6613 12.6709 53.6613C12.6668 53.6613 12.6628 53.6626 12.6587 53.6639C12.6546 53.6653 12.6506 53.6666 12.6465 53.6666C5.85707 53.6666 0.333374 48.2346 0.333374 41.5546V30.1173C0.333374 24.8346 3.80533 20.3839 8.60537 18.7279V14.4693C8.6406 6.63459 15.0804 0.333252 22.9729 0.333252H23.0353C30.9468 0.333252 37.392 6.67459 37.392 14.4693ZM25.0323 32.8738V38.7964C25.0323 39.9004 24.1216 40.7964 22.9996 40.7964C21.8775 40.7964 20.9668 39.9004 20.9668 38.7964V32.8738C20.9668 31.7698 21.8775 30.8738 22.9996 30.8738C24.1216 30.8738 25.0323 31.7698 25.0323 32.8738Z" fill="url(#paint0_linear_301_3223)"/>
<defs>
<linearGradient id="paint0_linear_301_3223" x1="0.333375" y1="53.6666" x2="57.912" y2="29.4587" gradientUnits="userSpaceOnUse">
<stop stop-color="#ADA785"/>
<stop offset="1" stop-color="#D6D3C2"/>
</linearGradient>
</defs>
</svg>
