<svg width="46" height="54" viewBox="0 0 46 54" fill="none" xmlns="http://www.w3.org/2000/svg">
<path fill-rule="evenodd" clip-rule="evenodd" d="M24.641 0.601367L42.3545 6.64655C44.3358 7.32387 45.6667 9.14782 45.6667 11.1904V28.8993C45.6667 34.2672 43.6717 39.4644 40.0522 43.5203C38.3947 45.3789 36.268 46.9762 33.5513 48.4055L23.977 53.432C23.6778 53.5867 23.3485 53.6667 23.0165 53.6667C22.6872 53.6667 22.3579 53.5867 22.0588 53.432L12.4653 48.4028C9.74306 46.9709 7.6136 45.3736 5.95888 43.523C2.33386 39.4617 0.333374 34.2619 0.333374 28.8887C0.333374 27.806 1.23894 26.926 2.35307 26.926C3.46719 26.926 4.37276 27.806 4.37276 28.8887C4.37276 33.3205 6.01925 37.6031 9.00763 40.9524C10.3385 42.443 12.0975 43.7496 14.3834 44.9496L23.0165 49.4748L31.6304 44.9523C33.9108 43.755 35.6698 42.4483 37.0034 40.9524C39.9863 37.6058 41.6301 33.3286 41.6301 28.8993V11.1904C41.6301 10.8118 41.3831 10.4758 41.0181 10.3505L23.3046 4.30527C23.1098 4.23861 22.893 4.23861 22.6954 4.30527L4.98471 10.3505C4.61973 10.4758 4.37276 10.8118 4.37276 11.1904V16.257C4.37276 17.3423 3.46719 18.2223 2.35307 18.2223C1.23894 18.2223 0.333374 17.3423 0.333374 16.257V11.1904C0.333374 9.14782 1.66703 7.32387 3.64831 6.64655L21.359 0.601367C22.4183 0.244043 23.5845 0.244043 24.641 0.601367ZM21.0966 33.1801C20.5587 33.1801 20.0483 32.9721 19.6696 32.6041L14.5765 27.6549C13.7889 26.8869 13.7889 25.6496 14.5765 24.8816C15.3668 24.1136 16.6428 24.1136 17.4304 24.8816L21.0966 28.4415L30.1577 19.6391C30.9453 18.8738 32.2241 18.8738 33.0117 19.6391C33.7992 20.4044 33.7992 21.647 33.0117 22.4124L22.5235 32.6041C22.1448 32.9721 21.6317 33.1801 21.0966 33.1801Z" fill="url(#paint0_linear_301_3201)"/>
<defs>
<linearGradient id="paint0_linear_301_3201" x1="0.333375" y1="53.6667" x2="57.912" y2="29.4588" gradientUnits="userSpaceOnUse">
<stop stop-color="#ADA785"/>
<stop offset="1" stop-color="#D6D3C2"/>
</linearGradient>
</defs>
</svg>
